<svg id="bbb38d06-3d80-4a21-927a-5bf8bbff2b14" data-name="Layer 1" xmlns="http://www.w3.org/2000/svg" viewBox="0 0 202.17 216.54"><path d="M36.09,118.81v-100h22.4v81.34h61l-2.8,18.62Z" transform="translate(-36.09 -18.85)" fill="#fff"/><path d="M135.35,118.81v-100h48.58q42,0,42,32.9,0,16.8-10.78,25t-32.9,8.19H157.47v33.88Zm46.76-51.38q11.2,0,16.38-3.85t5.18-12q0-8-5-11.62t-16.24-3.64H157.47V67.43Z" transform="translate(-36.09 -18.85)" fill="#fff"/><path d="M36.24,235.38v-100h22.4v81.34h61l-2.8,18.62Z" transform="translate(-36.09 -18.85)" fill="#fff"/><path d="M211.38,235.38l-30.66-38.22L150.2,235.38H125l41.72-51.8-38.64-48.16H155l26.18,33.74,27.16-33.74h25.2L195.14,182.6l43.12,52.78Z" transform="translate(-36.09 -18.85)" fill="#fff"/></svg>