<svg xmlns="http://www.w3.org/2000/svg" viewBox="0 0 264.94 342.83">
    <g id="b1167c15-c1bc-44ed-aa57-feea81bb0774" data-name="Layer 2">
        <g id="a5479854-5a18-4c0d-9976-09649a0be366" data-name="svg3010">
            <path id="e956be35-55ec-4eed-a81e-f0603ab1e139" data-name="path3016"
                d="M78,0c10.21.06,20.42,0,30.63,0a134.16,134.16,0,0,1,.37,15.4c-10.38.1-20.75,0-31.13.1C77.94,10.34,78,5.17,78,0Z"
                fill="#1c1c1c" />
            <path id="fd8581d1-53f2-46d2-8748-b969356d6c61" data-name="path3018"
                d="M62.41,15.75c5.16,0,10.33,0,15.49-.24q0,85.64,0,171.27-7.8.18-15.6,0c-.1-5.11-.1-10.23,0-15.35-5.17-.2-10.34-.17-15.51-.15-.17-5.22-.21-10.45,0-15.67,5.16-.19,10.33-.13,15.5-.21,0-46.55-.13-93.1.12-139.66Z"
                fill="#1c1c1c" />
            <path id="bd38dc8c-58ed-4a32-bfd2-e5c3ff7ba3e0" data-name="path3020"
                d="M109.09,15.77c5.15-.07,10.3,0,15.45,0,.07,20.64-.07,41.29.15,61.93,10.3.27,20.6.12,30.9.17,0,5.15,0,10.3.3,15.45,15.5.25,31-.37,46.52.45q-.09,7.55.08,15.09c10.32.19,20.65.07,31,.11.07,5.17-.26,10.37.29,15.52,5.13.45,10.28.18,15.42.33-.08,5,0,10.08.09,15.12,5.08.09,10.17.13,15.27.09.24,19.85-.15,39.7.4,59.54-.5,16.52-.2,33-.31,49.56a116.88,116.88,0,0,0-15.32.57c0,15.35,0,30.71-.2,46.06-5.1.16-10.21.33-15.3.08-.58-15.62-.31-31.26-.16-46.89q7.69.07,15.41,0,0-54.45.06-108.89c-5.13-.07-10.26-.06-15.39,0-.29-5.05,0-10.13-.37-15.17-5.09-1-10.29-.38-15.43-.4-.11,15.57.18,31.14-.13,46.72l-15.25,0c-.35-20.77,0-41.54-.12-62.31-10.41-.06-20.82,0-31.22,0,0,15.56.16,31.12,0,46.67q-7.74.16-15.46,0c-.1-20.75-.12-41.51.13-62.26-10.42,0-20.83-.06-31.25.06-.11,20.73.08,41.46,0,62.19q-7.81.22-15.64,0,0-69.91.12-139.85Z"
                fill="#1c1c1c" />
            <path id="e18ca1e9-1cd7-4af6-bb9e-69afbe408086" data-name="path3026"
                d="M0,140.2c15.57-.26,31.15-.18,46.72,0,.11,5.16.2,10.31,0,15.47-10.33.24-20.66.06-31,.14-.38,10.28.55,20.59-.15,30.86-5.2.6-10.44.2-15.65.1C0,171.21,0,155.71,0,140.2Z"
                fill="#1c1c1c" />
            <path id="b57c899b-8ba2-4aeb-8562-5b05146ec2a6" data-name="path3030"
                d="M16.08,187c5-.77,10.08-.48,15.12-.34.11,5.19.12,10.39.07,15.59,5.2,0,10.39,0,15.59.09.12,10.35,0,20.7.06,31.05q7.69,0,15.41,0c-.07,10.38.67,20.84-.39,31.17-5.06.46-10.13.1-15.18,0-.16-10.26-.14-20.52-.23-30.78-5.14,0-10.28-.12-15.42-.33-.17-10.22.33-20.46-.6-30.65-5,0-10-.07-14.91-.33,0-5.18-.7-10.44.48-15.54Z"
                fill="#1c1c1c" />
            <path id="fd267b18-2ed0-4faf-b3e8-21ccf82dce1e" data-name="path3038"
                d="M62.65,264.65c5.08-.4,10.19-.16,15.29-.13.14,10.33,0,20.66,0,31,5.18,0,10.38,0,15.57.16.1,10.33-.09,20.67.06,31q62.12.15,124.23.06c.16-10.34,0-20.68.07-31,5.3-.07,10.6-.14,15.9.16.84,15.5-.68,31-.24,46.53-26.26.63-52.52.4-78.78.44-25.65,0-51.3,0-76.94-.37-.21-15.51-.1-31-.33-46.52-5.06,0-10.12-.09-15.18-.19.08-10.36-.75-20.79.31-31.09Z"
                fill="#1c1c1c" />
        </g>
    </g>
</svg>