<svg xmlns="http://www.w3.org/2000/svg" viewBox="0 0 95 79.33" width="50%" height="auto">
    <g id="f565ade7-e6da-4d7a-a20c-c6fdc5a59e7d" data-name="Layer 1">
        <path
            d="M49.1,11.1,22.7,32.7,7.9,34.1A6,6,0,0,0,2.5,40V60a5.82,5.82,0,0,0,5.4,5.9l14.8,1.4L49.1,88.9a3.3,3.3,0,0,0,5.4-2.6V13.6A3.32,3.32,0,0,0,49.1,11.1Z"
            transform="translate(-2.5 -10.34)" fill="#fff" />
        <path
            d="M74,25.9a2.09,2.09,0,0,0-3-.3l-3.6,3.2a2,2,0,0,0-.2,2.8,29.36,29.36,0,0,1,0,36.6,2,2,0,0,0,.2,2.8L71,74.2a2,2,0,0,0,3-.3,38.42,38.42,0,0,0,8.5-24.1A37.3,37.3,0,0,0,74,25.9Z"
            transform="translate(-2.5 -10.34)" fill="#fff" />
        <path
            d="M85,15.7a2.06,2.06,0,0,0-2.9-.2l-3.6,3.3a2,2,0,0,0-.2,2.8,44.36,44.36,0,0,1,0,56.6,2,2,0,0,0,.2,2.8l3.6,3.3a2,2,0,0,0,2.9-.2A53.08,53.08,0,0,0,97.5,49.8,52.54,52.54,0,0,0,85,15.7Z"
            transform="translate(-2.5 -10.34)" fill="#fff" />
    </g>
</svg>