<svg xmlns="http://www.w3.org/2000/svg" viewBox="0 0 100 100" preserveAspectRatio="none">
    <g id="e3ff9734-657f-41a9-bd80-83dc8a2a0ac8" data-name="Layer 1">
        <path
            d="M8.9,65.6l9.2.9L54.4,30.2V14.5A3.25,3.25,0,0,0,49.1,12L23.3,33.1,8.9,34.5a5.86,5.86,0,0,0-5.3,5.8V59.8A5.86,5.86,0,0,0,8.9,65.6Z"
            transform="translate(-2.53 -2.53)" fill="#fff" />
        <path
            d="M97.1,7.5,92.5,2.9a1.27,1.27,0,0,0-1.8,0L2.9,90.7a1.27,1.27,0,0,0,0,1.8l4.6,4.6a1.27,1.27,0,0,0,1.8,0L32.2,74.2,49.1,88a3.26,3.26,0,0,0,5.3-2.5V52L69.9,36.5a28.57,28.57,0,0,1,3.3,13.4,28.07,28.07,0,0,1-6.3,17.9,2,2,0,0,0,.2,2.7l3.5,3.2a2,2,0,0,0,2.9-.3,37.23,37.23,0,0,0,8.3-23.6A38.34,38.34,0,0,0,76.2,30l4.3-4.3a43,43,0,0,1,7.3,24,43.47,43.47,0,0,1-10,27.7,1.91,1.91,0,0,0,.2,2.7l3.5,3.2a2,2,0,0,0,2.9-.2,52.16,52.16,0,0,0,2.4-63.7L97.2,9C97.6,8.8,97.6,8,97.1,7.5Z"
            transform="translate(-2.53 -2.53)" fill="#fff" />
    </g>
</svg>